<svg width="168" height="40" viewBox="0 0 168 40" fill="none" xmlns="http://www.w3.org/2000/svg">
<path d="M9.32955 30.5H2.73722V10.1364H9.53835C11.5336 10.1364 13.2472 10.544 14.679 11.3594C16.1108 12.1681 17.2079 13.3314 17.9702 14.8494C18.7391 16.3608 19.1236 18.1738 19.1236 20.2884C19.1236 22.4096 18.7358 24.2325 17.9602 25.7571C17.1913 27.2817 16.0777 28.455 14.6193 29.277C13.161 30.0923 11.3977 30.5 9.32955 30.5ZM5.80966 27.8153H9.16051C10.7116 27.8153 12.0009 27.5237 13.0284 26.9403C14.0559 26.3504 14.8248 25.4986 15.3352 24.3849C15.8456 23.2647 16.1009 21.8991 16.1009 20.2884C16.1009 18.6908 15.8456 17.3352 15.3352 16.2216C14.8314 15.108 14.0791 14.2628 13.0781 13.6861C12.0772 13.1094 10.8343 12.821 9.34943 12.821H5.80966V27.8153ZM27.1367 10.1364V30.5H24.0642V10.1364H27.1367ZM49.1672 10.1364V30.5H46.3433L35.9925 15.5653H35.8036V30.5H32.7311V10.1364H35.5749L45.9357 25.0909H46.1246V10.1364H49.1672ZM54.7691 30.5V10.1364H67.5361V12.7812H57.8415V18.9858H66.8699V21.6207H57.8415V27.8551H67.6555V30.5H54.7691ZM90.4491 20.3182C90.4491 22.4924 90.0514 24.3617 89.2559 25.9261C88.4605 27.4839 87.37 28.6837 85.9846 29.5256C84.6058 30.3608 83.0381 30.7784 81.2815 30.7784C79.5182 30.7784 77.9439 30.3608 76.5585 29.5256C75.1797 28.6837 74.0926 27.4806 73.2971 25.9162C72.5017 24.3518 72.1039 22.4858 72.1039 20.3182C72.1039 18.1439 72.5017 16.2779 73.2971 14.7202C74.0926 13.1558 75.1797 11.956 76.5585 11.1207C77.9439 10.2789 79.5182 9.85795 81.2815 9.85795C83.0381 9.85795 84.6058 10.2789 85.9846 11.1207C87.37 11.956 88.4605 13.1558 89.2559 14.7202C90.0514 16.2779 90.4491 18.1439 90.4491 20.3182ZM87.4065 20.3182C87.4065 18.661 87.138 17.2656 86.6011 16.1321C86.0708 14.992 85.3416 14.1302 84.4136 13.5469C83.4922 12.9569 82.4482 12.6619 81.2815 12.6619C80.1082 12.6619 79.0609 12.9569 78.1394 13.5469C77.218 14.1302 76.4889 14.992 75.9519 16.1321C75.4216 17.2656 75.1565 18.661 75.1565 20.3182C75.1565 21.9754 75.4216 23.3741 75.9519 24.5142C76.4889 25.6477 77.218 26.5095 78.1394 27.0994C79.0609 27.6828 80.1082 27.9744 81.2815 27.9744C82.4482 27.9744 83.4922 27.6828 84.4136 27.0994C85.3416 26.5095 86.0708 25.6477 86.6011 24.5142C87.138 23.3741 87.4065 21.9754 87.4065 20.3182ZM95.3997 30.5V10.1364H102.658C104.236 10.1364 105.545 10.4081 106.586 10.9517C107.633 11.4953 108.415 12.2476 108.932 13.2088C109.449 14.1634 109.708 15.267 109.708 16.5199C109.708 17.7661 109.446 18.8632 108.922 19.8111C108.405 20.7524 107.623 21.4848 106.576 22.0085C105.535 22.5322 104.226 22.794 102.648 22.794H97.1497V20.1491H102.37C103.364 20.1491 104.173 20.0066 104.796 19.7216C105.426 19.4366 105.886 19.0223 106.178 18.4787C106.47 17.9351 106.616 17.2822 106.616 16.5199C106.616 15.7509 106.466 15.0848 106.168 14.5213C105.877 13.9579 105.416 13.527 104.786 13.2287C104.163 12.9238 103.344 12.7713 102.33 12.7713H98.4722V30.5H95.3997ZM105.452 21.3125L110.484 30.5H106.984L102.052 21.3125H105.452ZM121.159 30.5H114.567V10.1364H121.368C123.363 10.1364 125.077 10.544 126.508 11.3594C127.94 12.1681 129.037 13.3314 129.8 14.8494C130.568 16.3608 130.953 18.1738 130.953 20.2884C130.953 22.4096 130.565 24.2325 129.79 25.7571C129.021 27.2817 127.907 28.455 126.449 29.277C124.99 30.0923 123.227 30.5 121.159 30.5ZM117.639 27.8153H120.99C122.541 27.8153 123.83 27.5237 124.858 26.9403C125.885 26.3504 126.654 25.4986 127.165 24.3849C127.675 23.2647 127.93 21.8991 127.93 20.2884C127.93 18.6908 127.675 17.3352 127.165 16.2216C126.661 15.108 125.908 14.2628 124.908 13.6861C123.907 13.1094 122.664 12.821 121.179 12.821H117.639V27.8153ZM135.894 30.5V10.1364H148.661V12.7812H138.966V18.9858H147.994V21.6207H138.966V27.8551H148.78V30.5H135.894ZM153.885 30.5V10.1364H156.957V27.8551H166.184V30.5H153.885Z" fill="#E8522A"/>
<path d="M2.4707 38.9117H62.9261" stroke="#E8522A" stroke-width="2" stroke-linecap="round"/>
</svg>
